<mxfile host="app.diagrams.net" modified="2024-04-05T09:40:30.147Z" agent="Mozilla/5.0 (X11; Linux x86_64) AppleWebKit/537.36 (KHTML, like Gecko) Chrome/122.0.0.0 Safari/537.36" etag="8W9WPi5xMtQVoMZLVCup" version="24.2.2" type="device">
  <diagram name="Page-1" id="2-A-GmZi4yXN5ZuMjquZ">
    <mxGraphModel dx="1120" dy="521" grid="1" gridSize="10" guides="1" tooltips="1" connect="1" arrows="1" fold="1" page="1" pageScale="1" pageWidth="583" pageHeight="827" math="0" shadow="0">
      <root>
        <mxCell id="0" />
        <mxCell id="1" parent="0" />
        <mxCell id="_P4RdeWbrzQk5U_TMxoU-1" value="" style="rounded=1;whiteSpace=wrap;html=1;arcSize=0;fillColor=#FFFFF2;" vertex="1" parent="1">
          <mxGeometry x="50" y="170" width="760" height="340" as="geometry" />
        </mxCell>
        <mxCell id="_P4RdeWbrzQk5U_TMxoU-2" value="" style="aspect=fixed;sketch=0;html=1;dashed=0;whitespace=wrap;fillColor=#2875E2;strokeColor=#ffffff;points=[[0.005,0.63,0],[0.1,0.2,0],[0.9,0.2,0],[0.5,0,0],[0.995,0.63,0],[0.72,0.99,0],[0.5,1,0],[0.28,0.99,0]];shape=mxgraph.kubernetes.icon2;prIcon=ns" vertex="1" parent="1">
          <mxGeometry x="750" y="180" width="41.67" height="40" as="geometry" />
        </mxCell>
        <mxCell id="_P4RdeWbrzQk5U_TMxoU-3" style="edgeStyle=orthogonalEdgeStyle;rounded=0;orthogonalLoop=1;jettySize=auto;html=1;" edge="1" parent="1" source="_P4RdeWbrzQk5U_TMxoU-4" target="_P4RdeWbrzQk5U_TMxoU-30">
          <mxGeometry relative="1" as="geometry" />
        </mxCell>
        <mxCell id="_P4RdeWbrzQk5U_TMxoU-4" value="" style="aspect=fixed;sketch=0;html=1;dashed=0;whitespace=wrap;fillColor=#2875E2;strokeColor=#ffffff;points=[[0.005,0.63,0],[0.1,0.2,0],[0.9,0.2,0],[0.5,0,0],[0.995,0.63,0],[0.72,0.99,0],[0.5,1,0],[0.28,0.99,0]];shape=mxgraph.kubernetes.icon2;kubernetesLabel=1;prIcon=svc;direction=north;" vertex="1" parent="1">
          <mxGeometry x="60" y="292" width="68.16" height="71" as="geometry" />
        </mxCell>
        <mxCell id="_P4RdeWbrzQk5U_TMxoU-5" style="edgeStyle=orthogonalEdgeStyle;rounded=0;orthogonalLoop=1;jettySize=auto;html=1;" edge="1" parent="1" source="_P4RdeWbrzQk5U_TMxoU-39" target="_P4RdeWbrzQk5U_TMxoU-12">
          <mxGeometry relative="1" as="geometry" />
        </mxCell>
        <mxCell id="_P4RdeWbrzQk5U_TMxoU-6" style="edgeStyle=orthogonalEdgeStyle;rounded=0;orthogonalLoop=1;jettySize=auto;html=1;entryX=0.1;entryY=0.2;entryDx=0;entryDy=0;entryPerimeter=0;" edge="1" parent="1" source="_P4RdeWbrzQk5U_TMxoU-31" target="_P4RdeWbrzQk5U_TMxoU-39">
          <mxGeometry relative="1" as="geometry" />
        </mxCell>
        <mxCell id="_P4RdeWbrzQk5U_TMxoU-7" value="frontend service" style="text;html=1;align=center;verticalAlign=middle;whiteSpace=wrap;rounded=0;" vertex="1" parent="1">
          <mxGeometry x="60" y="382" width="91.84" height="30" as="geometry" />
        </mxCell>
        <mxCell id="_P4RdeWbrzQk5U_TMxoU-10" value="" style="group" vertex="1" connectable="0" parent="1">
          <mxGeometry x="530" y="220" width="150" height="175" as="geometry" />
        </mxCell>
        <mxCell id="_P4RdeWbrzQk5U_TMxoU-11" value="" style="group" vertex="1" connectable="0" parent="_P4RdeWbrzQk5U_TMxoU-10">
          <mxGeometry y="15" width="150" height="175" as="geometry" />
        </mxCell>
        <mxCell id="_P4RdeWbrzQk5U_TMxoU-12" value="" style="rounded=1;whiteSpace=wrap;html=1;fillColor=#B8FF94;" vertex="1" parent="_P4RdeWbrzQk5U_TMxoU-11">
          <mxGeometry width="150" height="175" as="geometry" />
        </mxCell>
        <mxCell id="_P4RdeWbrzQk5U_TMxoU-13" value="" style="aspect=fixed;sketch=0;html=1;dashed=0;whitespace=wrap;fillColor=#2875E2;strokeColor=#ffffff;points=[[0.005,0.63,0],[0.1,0.2,0],[0.9,0.2,0],[0.5,0,0],[0.995,0.63,0],[0.72,0.99,0],[0.5,1,0],[0.28,0.99,0]];shape=mxgraph.kubernetes.icon2;prIcon=pod" vertex="1" parent="_P4RdeWbrzQk5U_TMxoU-11">
          <mxGeometry x="80" y="12" width="50" height="48" as="geometry" />
        </mxCell>
        <mxCell id="_P4RdeWbrzQk5U_TMxoU-14" value="" style="aspect=fixed;sketch=0;html=1;dashed=0;whitespace=wrap;fillColor=#2875E2;strokeColor=#ffffff;points=[[0.005,0.63,0],[0.1,0.2,0],[0.9,0.2,0],[0.5,0,0],[0.995,0.63,0],[0.72,0.99,0],[0.5,1,0],[0.28,0.99,0]];shape=mxgraph.kubernetes.icon2;prIcon=pod" vertex="1" parent="_P4RdeWbrzQk5U_TMxoU-11">
          <mxGeometry x="80" y="75" width="50" height="48" as="geometry" />
        </mxCell>
        <mxCell id="_P4RdeWbrzQk5U_TMxoU-15" value="backend-pods" style="text;html=1;align=center;verticalAlign=middle;whiteSpace=wrap;rounded=0;" vertex="1" parent="_P4RdeWbrzQk5U_TMxoU-11">
          <mxGeometry x="25" y="135" width="100" height="30" as="geometry" />
        </mxCell>
        <mxCell id="_P4RdeWbrzQk5U_TMxoU-26" value="" style="group" vertex="1" connectable="0" parent="1">
          <mxGeometry x="180" y="240" width="150" height="175" as="geometry" />
        </mxCell>
        <mxCell id="_P4RdeWbrzQk5U_TMxoU-27" value="" style="group" vertex="1" connectable="0" parent="_P4RdeWbrzQk5U_TMxoU-26">
          <mxGeometry width="150" height="175" as="geometry" />
        </mxCell>
        <mxCell id="_P4RdeWbrzQk5U_TMxoU-28" value="" style="group" vertex="1" connectable="0" parent="_P4RdeWbrzQk5U_TMxoU-27">
          <mxGeometry y="3" width="150" height="175" as="geometry" />
        </mxCell>
        <mxCell id="_P4RdeWbrzQk5U_TMxoU-29" value="" style="group" vertex="1" connectable="0" parent="_P4RdeWbrzQk5U_TMxoU-28">
          <mxGeometry width="150" height="175" as="geometry" />
        </mxCell>
        <mxCell id="_P4RdeWbrzQk5U_TMxoU-30" value="" style="rounded=1;whiteSpace=wrap;html=1;fillColor=#B8FF94;arcSize=4;" vertex="1" parent="_P4RdeWbrzQk5U_TMxoU-29">
          <mxGeometry width="150" height="175" as="geometry" />
        </mxCell>
        <mxCell id="_P4RdeWbrzQk5U_TMxoU-31" value="" style="aspect=fixed;sketch=0;html=1;dashed=0;whitespace=wrap;fillColor=#2875E2;strokeColor=#ffffff;points=[[0.005,0.63,0],[0.1,0.2,0],[0.9,0.2,0],[0.5,0,0],[0.995,0.63,0],[0.72,0.99,0],[0.5,1,0],[0.28,0.99,0]];shape=mxgraph.kubernetes.icon2;prIcon=pod" vertex="1" parent="_P4RdeWbrzQk5U_TMxoU-29">
          <mxGeometry x="90" y="92" width="50" height="48" as="geometry" />
        </mxCell>
        <mxCell id="_P4RdeWbrzQk5U_TMxoU-32" value="" style="aspect=fixed;sketch=0;html=1;dashed=0;whitespace=wrap;fillColor=#2875E2;strokeColor=#ffffff;points=[[0.005,0.63,0],[0.1,0.2,0],[0.9,0.2,0],[0.5,0,0],[0.995,0.63,0],[0.72,0.99,0],[0.5,1,0],[0.28,0.99,0]];shape=mxgraph.kubernetes.icon2;prIcon=pod" vertex="1" parent="_P4RdeWbrzQk5U_TMxoU-29">
          <mxGeometry x="87" y="17" width="50" height="48" as="geometry" />
        </mxCell>
        <mxCell id="_P4RdeWbrzQk5U_TMxoU-33" value="frontend-pods" style="text;html=1;align=center;verticalAlign=middle;whiteSpace=wrap;rounded=0;" vertex="1" parent="_P4RdeWbrzQk5U_TMxoU-29">
          <mxGeometry x="20" y="130" width="100" height="30" as="geometry" />
        </mxCell>
        <mxCell id="_P4RdeWbrzQk5U_TMxoU-34" value="" style="edgeStyle=orthogonalEdgeStyle;rounded=0;orthogonalLoop=1;jettySize=auto;html=1;" edge="1" parent="1" source="_P4RdeWbrzQk5U_TMxoU-32" target="_P4RdeWbrzQk5U_TMxoU-39">
          <mxGeometry relative="1" as="geometry" />
        </mxCell>
        <mxCell id="_P4RdeWbrzQk5U_TMxoU-35" value="" style="group" vertex="1" connectable="0" parent="1">
          <mxGeometry x="731.6700000000001" y="180" width="60" height="75" as="geometry" />
        </mxCell>
        <mxCell id="_P4RdeWbrzQk5U_TMxoU-36" value="namespace" style="text;html=1;align=center;verticalAlign=middle;whiteSpace=wrap;rounded=0;" vertex="1" parent="_P4RdeWbrzQk5U_TMxoU-35">
          <mxGeometry y="45" width="60" height="30" as="geometry" />
        </mxCell>
        <mxCell id="_P4RdeWbrzQk5U_TMxoU-37" value="" style="aspect=fixed;sketch=0;html=1;dashed=0;whitespace=wrap;fillColor=#2875E2;strokeColor=#ffffff;points=[[0.005,0.63,0],[0.1,0.2,0],[0.9,0.2,0],[0.5,0,0],[0.995,0.63,0],[0.72,0.99,0],[0.5,1,0],[0.28,0.99,0]];shape=mxgraph.kubernetes.icon2;prIcon=ns" vertex="1" parent="_P4RdeWbrzQk5U_TMxoU-35">
          <mxGeometry x="18.329999999999927" width="41.67" height="40" as="geometry" />
        </mxCell>
        <mxCell id="_P4RdeWbrzQk5U_TMxoU-38" value="" style="group" vertex="1" connectable="0" parent="1">
          <mxGeometry x="400" y="278.5" width="91.84000000000003" height="98" as="geometry" />
        </mxCell>
        <mxCell id="_P4RdeWbrzQk5U_TMxoU-39" value="" style="aspect=fixed;sketch=0;html=1;dashed=0;whitespace=wrap;fillColor=#2875E2;strokeColor=#ffffff;points=[[0.005,0.63,0],[0.1,0.2,0],[0.9,0.2,0],[0.5,0,0],[0.995,0.63,0],[0.72,0.99,0],[0.5,1,0],[0.28,0.99,0]];shape=mxgraph.kubernetes.icon2;kubernetesLabel=1;prIcon=svc;direction=north;" vertex="1" parent="_P4RdeWbrzQk5U_TMxoU-38">
          <mxGeometry width="68.16" height="71" as="geometry" />
        </mxCell>
        <mxCell id="_P4RdeWbrzQk5U_TMxoU-40" value="backend service" style="text;html=1;align=center;verticalAlign=middle;whiteSpace=wrap;rounded=0;" vertex="1" parent="_P4RdeWbrzQk5U_TMxoU-38">
          <mxGeometry y="68" width="91.84" height="30" as="geometry" />
        </mxCell>
        <mxCell id="_P4RdeWbrzQk5U_TMxoU-43" value="Actor" style="shape=umlActor;verticalLabelPosition=bottom;verticalAlign=top;html=1;outlineConnect=0;" vertex="1" parent="1">
          <mxGeometry x="180" y="20" width="30" height="60" as="geometry" />
        </mxCell>
        <mxCell id="_P4RdeWbrzQk5U_TMxoU-44" style="edgeStyle=orthogonalEdgeStyle;rounded=0;orthogonalLoop=1;jettySize=auto;html=1;entryX=0.995;entryY=0.63;entryDx=0;entryDy=0;entryPerimeter=0;" edge="1" parent="1" source="_P4RdeWbrzQk5U_TMxoU-43" target="_P4RdeWbrzQk5U_TMxoU-4">
          <mxGeometry relative="1" as="geometry" />
        </mxCell>
        <mxCell id="_P4RdeWbrzQk5U_TMxoU-49" value="" style="group" vertex="1" connectable="0" parent="1">
          <mxGeometry x="900.0000000000001" y="271" width="124.49999999999989" height="140" as="geometry" />
        </mxCell>
        <mxCell id="_P4RdeWbrzQk5U_TMxoU-47" value="" style="shape=image;verticalLabelPosition=bottom;labelBackgroundColor=default;verticalAlign=top;aspect=fixed;imageAspect=0;image=data:image/webp,UklGRiIuAABXRUJQVlA4WAoAAAAYAAAA/wAA/wAAQUxQSEAaAAAB8Mf/n5qp9f+9JpNrFy20UG8PDnW3Q11wzqm7IHUvdXdXqLu7uxuUCl6ouyssu3t5MvK83ZLJRN7nlrztj4hwaNs2VS1c7aJ76IX0A/T/fZzzP/242zBiRQ6jVZ9yqdgZWtui0NNw2h2PF7p06CGIbckp8LBB08OLxAqcl1DpwAjiBY1LZ0KKOl4nVtRhMhRkp8L4Qo4Yp0lKBXQozCBWyOF4SAVoqSUOI7dwg0NnGQFoKI0/BpNTuMuXRQI6JQTe4owVbLgaQsNgqYAWmEq8WMPUMFgABM4gt0jDNFtAhwzQEseSW5x7u94aUA6Bkjic3EIOaJh/phUOKUbv0I0xATJihFKYUISe07lhsKMQ9Wqv4vMujUWnBztNgajX9RFF5x0a+DO8GuxRzbedgmjbuNjaH4zxdyB0RcFKxYPV/zio0Dyny8NEtRjZ2YDdL+xLToGFPSAB+FXoxMDHs8RYYSUa9idUQCiTA4Eri2oVoy4fGDECmQbIwmp/GZ0tAIa0Uo5FoRzsvJDCgeZyvKw2ER991pdYASVat81IZMpmbLsjNs395BRPop7zjHVJZFPEowWOKJxVnC41QiLpy3ig0L5uwSw6tFZHRWtYXN0mlU4ABN5lrGC4Dx3CXrE2qRWS+TOJF0rYUqNZtwqrlF4iNGobFckqRi9AqMTSbyBh9BaxAskzFkqjmlR6NST1RxfJqhmQiJOoyCjVhGj83q8oFl06ABJAYtmsIHF0V0FEjLp/AgUgsWyWk6IVtisGz+kkCADJZaMzKZB4sxAko5V+gQIMCVhlIzWQ2Ivc4mhxJ5GV9CjMb83/RYeGtkMDCWVqIHA48fyPb7fEUFUdI9Oj8EWPvI8YDfhTayCpTA8Ejsr7zS5NQWcgUslmGamiz7vnfvQeOpWtHit22WikBwKTied76s0lqp7tVKv6CWSzmgqJWTznU18BaX/N4iWRfg0p/a7Ec73J/RWUrlhlNYH062l5kViexztDaesos0YtgRTNdGjIzcjJ8S0PQgB+BUgjpZ8OCNxAPL/1KkugAV1Ol1lJpI1+75vbq1w6DBJASqmhUwKZ4ztm9IaJqCaXVQkt0/N6Xv84tL4XOakqEin6HspHaumtT05O6wsggJRSVqAaaYHAeeTmdKNjEZRtjCHhOHMgVT01CvNLubyK06hG0/KaRabIrCpIL9XwXJYuXYYOy2uWFLKqyqlBExflsWTkfIBOiSTSj5E1L9W4i/S8aq1aVnNdYjnM4BrqUYkUsllpT5ZXePVapVqpNj0pkc+S076QopqBVJ0xSbT0g1OtUqlVPV9qS+ZLclgaH1egapHV5LJejub1mrVqpVKve1LGZ57DieXvlg8h0WiklxodwshbrVQbnlRI6Pz1c1cyWqUDGlbZsEs7S8OLzJM6ZdPrxNyVnEZBQ6OaReZ2gfRO4tncFS6dAgGkkHHoDJpef/XNW+/QAyEpZBxABn408ZzdwmdBGadbUhlP4fS9GK3QBo2M5NJMkHiJWM7q4ZEnqEwss0bj15756jntBwkgTeasQe4OP7t0DgSQTmaNxCRy81XcDxEvGzEya3xck7ctr7ehYLgMZHtWPy/k6mpGrV8GpJUZo/BZC7E8ZeUOaFikTic7skGjY6U8xaGNrZVZFSllh0TxZOQ0OtRZyc6MUNiZeJ5yACSQlSxnhMTkPM3o0snIUFYyQuCsfOXqgNSyqrNmap7C6Z6AzGQ1M+4mnqfZnoFEZrKuslr9BDk52+y00qynytzIjJeJ5eqoSwyykko2M0LhLaIcxV0QkJn0dVbMZLlLZlJmxhxOLEfF3ICspFZaZ8Q8N09xPgrITgKFAxG9E5CZVCor5ucpjF6GBJBR00tkxjyeozj0REBm0pdZ8YGTo3C6FwKZSU9kxTv5Oux+fUBmspkREq8Sy9sph5nJhp8VT5GTpxwHicxkPSME7snXcaf9DTJqetW8rLiO3LyddZGZrGbGGXmKQ+v50FlJVDJCYkKewqjPEuiMZFVVm1ntaGy4Ol87XlnJRkcDGcmNyaE8lU9CIhuJ6uJshMbSFXK12+XSRRDIREJnlU3hYzdX4bQPJLKRmbW7JJ4LQq6KdTzorKQvi2jeAaMuXyVJqCo6kVQ6w33la/QIRFYySsF8furSCQEZyabKAoHfehHL2Z/NJHRGsp4SKbx6vdIh7w/jfN3Q9UuojGQlaRItfa9Wq1RrNU9IgSNzeOL5bZnJTpkkbzPIWwnzqoiZ3nrk5C57QyGJTDILtV3E5a1WK7WGL+1GKywqBVvyVq68BDqNlJUYlPQbtar5oZVKlPJWW6crX8eeU0jY5FLhVcr1Sq2Z5tsTif1zGE4TIBPK2MwdHXUpddpWR2e/XP7wcJW2lLIKbbC4ktk79xyWD0KkklWR3bxLgTPDveaw3DlhZh0rPZVBo9vfKNxrDstuKZtesmJInUEs8V6YKJej81PKimGUrGShjyU3pzcMrUAnkFWLNI6AaM9At61mzV0EnW8/RoqlGcRhnyuv2R46fWbZkcHP9rkNMXoNMlFm+xFQjfSNjunG1rxOvAtkKlnWGlqlReIA4pTjbnoS79Xsmf1G6vjzbpTr0c5QaWWznDr1Seae83vz2/GRjpFodKaNf1k+jPM8GgmVRlZ9NMrpP7jmlOvOoach0sha2tUaf6xCLO/ZqKl1cqnKkCplfIEZ5/uqKyDSSFnzUm5fyYzzPXHfr6FSyEalkS4+MYzzP9obUieXnR0y3cv2hG2OXB6BFUml1rKaYrWW2DmIC4GBf0Alllgq0qx71uxwFcGqyRA6qUQ5udBoW8OgGBYfhoiTdcvgg04RT0mxLo/H4L+DTChFLUV43VwuilUjoBLK5pLke/w7XFck/hwInSiz/CthNi0wIbquMNI8D5FINhfLpOtuCULBsPIXkIj/6A7lSrIgMbsHsZBCWbVhO1SCzKLcTBZ+GxokKhrn0j6QOv79Q0dFJNmDFiPDdQXkT4PQsZlrjVqiPRweDYWzcSr8uMyyLmpJwvkFFYgxegh+TGbZoSqxwce0MBSUpy6vwbdnlk1UVAw+7iGHFRXk0HIfQlg/umt2oiLiwlMuC0KB+RXmwbfJpod6M2brC13DPyw0v9IC+BZZ9eBX7eGVbvZQUDtfKViMyoq0j8EEoYcZCm5x+Q/hmzLcJpYIy/JL3cNQgH7Z1+HrUDaqQDVIp83wrLG1EH3rg5AKkG0NyIqZWUrcXmJBKEbv0JWB1yj7aNThBZHQ6hTijIrSMU7HKS11VaEqIRc3FX4bYYQi9eOWoFmFqAAVvyxm9iOXUaE6l9b5VjZQb8CvarzeYvQ1itavNB2qIlHzdHM7cql4XYnGw69AV3zcRQ4VMIz6/ClCDblFMUMOPQ4ftQYWlIgVMpwOhtJlgfuCuKB/tlSBVriBeDHDaKV2VH0f55Fb1Ljz0IkaDg8oavlYQBl7FLUgly5AXZXNifUFnXF36EZDrFvYOLSNRgXllYkVNusL1Ynvuxc2jFaviRq+7lng9Py9KcRPyxQ4LYt82fjF+CnqhXdR9/4ocBi9gg78XuAQvYV2/Nq72Cnj70FFLt5WtXplI3KKGoemSDTFNgHF7Ta/9DPsRry4YURd9tuk0H84p+J3nNF/oxxL6rKysBjuU4lPXZez+JDQvPzf5PTq0aXFdZ3Acc5LLV279+zRrWTUJo+7eZe6t7jcsM513VKp1NLCTevyfYnO6vzum88WzZ89a9as2XPmffzZ19///MsPn7zzwMlbd7XfwBh1fe2nTz6e89GsOXPnLZi/YOHCTz//fP7rNx+wEjEn18N6PnTiz9S+vmyIrU5dOgYykXFYMm01cvKcNS9+aE4npAqcxFczXn35lRlf1QI8TwO1qcsTt7zSuvrhDzohQgP1t/M//mqxDK2TGn+Nz/tWDl/pSihA4m6jklnrwJ2nfg8tpFD4cSfi1lv0oLlQkHjaKZW6LL/FlHlQSgv4gXE5vuiG58wbkAFHkEuMmcN3k7+B1FpAHUncYiGnPQMELiDXNOUUoTUEvsj7cb4SXQcRcCi5ZvOC82BhGpSGDI8GJ7Jkkgi4mEqBdY7L6TAoQIQW5zouXWYw2VZ7zHXoEKEUpPK3JW5huAo5n9yIdfSMYfET5OQ8ZxtMtJ89zKUDjUV8sRyxOM6OGshpNygoLCwRy3dONTiI3PjDYVxmlxCP44wojAbVoDV+6PYfR/om/X9do5+xhJxscEDs48OhtyGh0dafWAyn2VihHVrhk5bkMM5tf8B5jDlO0kY7c7mRz2VJCxE12OFJ4K7DWGhyono2zWHcZQmYEqCwfyycdoAGBM4lN4aTbaxahpZ4LNFqexGZ5c7lmGZEqyRJ1XHHsI/FN+kZN56QzLSa9ViuJWKd3TSbHU54AOxHxuG2cjtOLCcmhJjxQFaY5xKzc0IUhzbwoQX2SVCB0UrpOfymnamFUc/dbnn9rQf3Ms5PzmiZve96a/oTxyxvtzdaIwMm3fzSzJkvXLdnX0uzN3JYe+100/08sGX10976ue2LB7aN8aERfNMpd7/w2nM3TOxHzKi31XpFapATrbDH1c/OmPnKLZP/QcyJFUlx6RAIAP4G5FjmNUHi2CglOgrCw3SWMNkqY8978RcfJ5HT85TvoBGo9waQy6nXaT+YZvy2K/HYY7XdE53QAKDx19WrWMxyVh916pO/qvCV8nKXtZuWYZr9ds+p68Efapgmdz6+z1p9lh0w+ZvNyTEP54a3/xktT/mugcTjkiTFocF1aPOJHEeL0U91abkv0MSPQ8hJsEyHfbxYAxA4kEZ/Cg34Qgh83Y/o319CQ/u+FMBB9rJyGvCUBr5+4eXPBTyh8ce/DbMc2v2Tdg1AYgFt/w20kr5UQuAeG5y2XAh8N/WMaYvgCwDekr9rkBuEcOp7qw/88sqLC5vwfY2OoLh2Tk8Ko9ICKPi40oqWOIxc06zlXoDA7MFBSMKZAtoTSuLMc4C2WdN/hNbw8caKtwCq/FcNWkGgfS2b0ZzG/g18tXMXotbNH4SSQmMScQrUhZBBIbTCjJN8aOkr6ED5OIR4tJwHC43bu1OQ6bgGlJAAFOa3hobQ+t8Cvx/cM8iyzrSmlkLhZHKsnJGUwLYnICHxKDn2n/uGb7vx+lvstMclPwG/TgxOwGR5qO/xC6EBrfHBAaty1m2Pn6CgZAWdd4zv12vAfosg4eNeC5z+5St8sTqFz1RGBzS0ltrb0qyMTW9rgwIg4D07cYu1tzz1J0gofN7dXOS0kxaYwcl1uUMToQC9uKq+3JCcwKYN/ob+Y11yjPJs/yeUktiDuI2zEsNpGkTAK8RsAJBeo+GZ1fDJfqsYIw8Jk9wPqdF5SMToNYMSQ+K5ocQoUD3eCK1qW4kYRez6GwLbUwsznjJ0EJQWmOUSMw/jk1BhTW9pWr3iLMOPJm5Y1XUhPOxNrnmPfRlS4swVNg2PCqPlv4SHCWZ5nBJt04SW+GllYhbOsZPojvQOkRWto1/6+goaHbcPomSetYbdNImTqeSywLXQiZAa3/YgzgMzSjRwMbTCLpHSMnoeTbxmKYJLd0FARFpDvEQ7Qms0N6RwkIy30LB2aIGLjarmtDcEOiJV6dIESIG7yGFOaNO1QfiyS7SaS0ZzMrSYWzgvBQdBxqOw8Lo7733wsedmVwAphUb5sISe0+5QCnuQG6nY1ZZC2WrApVsgLI14h7ZSKnxIuZZrfkgHtMRrxEwzdtBa4dMWFrX6HgiJJ8kxuAMeFpWiJg5rQOJF4iwsbf8O+LjTUqfBQ/9rKIUfgs5ylPMTw+nAAImXowXaWgMCp0Sqqv+RC43eucIZ5KRgb0txnBmQ+LNXBE4TIQVuJ275hl5jBHGb2fdCaFQHETPYEQHzXYpyLITCe5Hyvg2BRa4Jo+4/Q0Qqy6Xj4YvIoyJi8bkQ0BhJPMqFKX6ONc7RB8kx2VbrgLOolTsOI0alM4VWUALjiGeAQ09CoH0FC/8KLX7IKBMjPgcSjaHk2NgDCgp7EjcYEbLQxgRIhQWcwvI7syDR1jdKyxfww4dFtLC2SjYs2VRGeg9RLk7B5RAwrm6T7aGt/a5w5GE/aA2JuSVi6eF0D3yUV7MwElrgkQgrd0ChrY/NfEb9KqFhp5JrWDkKSmFRFE77hHZ8YpbXmQlpfG1h0ut3eObka0atn0NBbEiOrTxdv4USuI14lEsS49AjhtiHuMmOBmeSGy1Dia6GBBTGE8+CGwJqA8iJFGo7HfBw5PTYRAb83dtOy2dQAtOIG4xBuLpkYRco0w6zfSCM+4GlN6DkcHKMB1R7gL+OhdCWVyElniLHMu4SJdE8bqVRDxqWJiOiWE+OpdDwcV0K9rEd32sC6oMsbKlgiOglrdEZN2P0rZB7IowN+bzFwviQLwI7zOejr7Cwi9GjK9HRaOBVYubduwENsbEVTvdBSDxj4/J07W6J6RaDRxqcbYMYvQgJoxRJ2COWq+L4p52tldbwN7Saz+gFSIGpxK31bGNMyJet5s8Qo/97MTnc5dRjIXRHUAKDQXVoo31i5VYIgQdsXJkUlw6FNPuZ0bIaXGDFDaQwH00JkdjXxuVxbG7c0yOs7UFL7GUtu0P3QwhMIddg55CvWi2MhFb42nyKc7oInlK4tndgbc+HoJu7kRPpGyyGFjg+pqrOg/BxOblxVXcguYn63Qp/rGwp61iDC2M43eBRcrLgqkQ8YMCo12/QAtcQj/vRGEvcdp/5pksEh3YK+a6rASP3aUgh8es9F9zwPfDtVoH9Ju58KInHrdXC6SYIiQnW+4E57hgLj9xmzw0MjDA+EedEH01J2DNkP2uSROJ+ciw3Q4WFLdZQWgiJJSsSi97EovVsaYdYRvwYtVzShPIBaPx83rLELYW/B0Lj78D6uFuFZ5mcz+k6g4PJTTLuJvFJ0ECL8m+ogIuscLo9wLiwk7BvLLfHJjHh9s7fGOIWVm6HHz6XrTexH7pZ2D7kp+gU83A45kZg8UfPXrHzsmFPyMJ+kJA4KlJXkUexwEwW37s6NI4SnRIE3QxP4Si7GFxiN7D0sfH8D0dek7XaDaz3ETtb6YD7TBxax+gPPW8t5RgoiZ2Im+wd8mN3C9vpgF96RuHU8048vpwxFMWZ9ezt+2tcxTi0VhNGl93CDRCI3ptsLYrRvpbSsM/CrgZTbaa4NBpa+ziYOCXh8JAD49qd9cGWmttW6eg3gpG2A8JmSolFjvstaOAJciznj9L4bRmb1SG/9bIc7wm/QwcHibe2utxh1rPqEuOsOsdWntPRwOwSMQs3G5Y9QCXHhIWv48Z1wNc4ijjZ2CdA4qXogWUudZsF6eGpYDmB7kJTICQOoi4OmV3HFwJq/c0KYC20dcjd1OIyg/XLUAqLNyFu9iw3aSj80M8sEW+lAyA1lvY1K8dpNRsqf3anEqfAtn+8Bu3jnh7M+uoo+jHeDxBay92C8nAnKH3/36Arm1Gkjp2gHK9CQqMettTCeRVOYGy3C4X0sXhnW3DcFjoOAhrVoBUX2scYdX8CvsD0ZRMRmPJc+HM9RSug91dQCrtHisLDfrjCouUjNnM6ElIqLDkwcnV8AyzZ1HbS3g4JYFtyIlZOgQT0zobVLp2GpoLGn289dPWU/UdtvEqrbfSaxmolFZonu8TCofLZUF608MTC1qQPDSgsPnMN0xp3zVO+gtR4dWDMpUg934MEFOatZxa+9z6L4Gnc1zNR6LLjSW8bL/Tlg5O2LBH1Gn/GbAgl0XbXocOCwvbZ++6alkrgh5v37RepypMB4SvMPHbrDXa8rA34ZsNo9Yy+dAaUcaHdOuWfgdWbnPZoOTREe9OvHms0tRvaqBIAgBblL1+7ckOLn+BB+hIfn7bDhtuc9TPwyw62sPYxT9TDACiF5vzHb5l6x1MLqoDGgj0ZcdvSiDMf+s4smIL38WM3XnvHS78AGj/uS06CwGkctGVyRm01Mjq7pgtvri7dYbHDbFqbfatvoJUIswKoTO0T2mN0HsqWUoR9bcbehbTY8W1r+Jw53bBMCd/3pTZKKy+wnNH/nA+tBSA9DTTvWNkWVvwNWiltOOVrRN3SZ3Zpsb6g4DQCACIGCoWo++Lk3snm+Tk0/LP5c+fO+uC96W+//vYz3Rmd/NvsuXM+ev/9j2Z99N20gLO//ygwY+aM6W++Mjt6b+fU64Q5PgCg9sH5Q6LlZrTMd36lXqtVK5Vymx92GJ9EpRG4wJYO7yXz6pnwPUSk3qSQSvoSF1ou0i77vdppHuRFV60XeSxHWjN1T2lt2Z8WXvWnd2/Yd9Xo2yJb27zctNW3kl6z+uuM60Z1iZqXJGeJc8f2fpAbs7Yc5nC3FFrKImaxmMPFiK+95+HHThoz0CH78Vx1rcGDBwzot3rgVg27Hn3WHjZkcGjKgP79upN5Gx/uQbb98MNfVWleRFr7GxneLMFqYyYfe/ju67WQ9XRi1HvjTbfYcpvtt99ppxGjRo0ZN27sjlsMXSYsb/xocp811t5wsy23Gzl21KhRI3bacbstNxnaixlF+g974cqZxQInY3tppx/w6NZ9u3Xrtfqme16+AErDx6XkRp9ClurJpjzcZVmVlqcxKnZuZvyEzRRTN4MT000y6zE4ZWOsdgwX7CliBk3xcQYxi/H7/AUl8azNEmJGeZwEBYo6bjqjfMmq0W5dpNR5Mnm0dAtwBbncOC6O64b3SW28MCjIufalZ4Ff+pJjvw7fQDN8q1OM88zpNNQtk39sncmG0dsqRjcdHh6J5XrIykByilG7syDxVUzX13E+AG4rSE0OPQAhcZLZb4y0QsYDP65ehCmjYzJSwz+QGHND5zi07k+obU+8ML+14h9CKIVbBhIz7Oh13F9YOsYIRSnXXwxfSFReu+KoCRNPve9HYPba4R4L1G/0NbRuSiAyZ+nUrpblokzT+/TPFGDgzz9zpUjnqkgXGbVsdsS0R595/MajNyvFdQeLcmfcfhoaa4t3wTG+H+Mup//P4whWUDgg+hIAAFBMAJ0BKgABAAE+bTaWSCQjIiEl8mm4gA2JY278EVixIG9lXV3/6vzuOXe5h8jrvjZ9refv/e+o/+w+oB46/qP8wH7cerd/0fVN/W/UA/n/+A9Z7/i+w5/fP+z7AH8t/zfp1exF/Z/+b+7vwDfsZ//PYA9AD/t+oB2LX927X/9vkxA6Nuzsl4ATrfw5+t8ZL7TxF8dHe+/U/+P7AH8b/v3o5ZuXsD2Bf5r/fvTa9gH7if//3GP1i//JKJBtVlsUUEujPyfevN3vJp9Ww9ni+b6kb33u1yG1Uz17BtXm73QGIoT9I+n44QhRI5kUYBxwwAFIUWrwglu4Clt9e5u5O2i0iRfvuciEkpIDGUOzgXwvVErCponUqafXmzQnF0J8HRVcB8CrgowDjheao/vjbKIyI4hlrXN3vJpQo9V98/aQclEtBkkBnfXmzWgFIPWl7P0APwyiUvuEjJEi4Sdo5ymENmR7a5ZwiUSP8MzvrzavNG5L3HeBoq77s9g1t53Rf+35jd7yafXm1XoXsRKUrTjClf4wQpGAccMBIlnUAyrPMXus/zUrwiXCYdrYLt5NqChvEmJ1r9m2O6imXqEdYHJtFWcq81+IE5zuDmCdFC9vzkAoWLksC2iWxk8evP1cIjJGwVvpTaNLSnC7vEwt0zx5bCcglJ+1v20gBKcyK+K2pjFqs+w3n/RAR5PsnWCyLEcrwsRjhPywKUtSWUzoAfX0FcsZ/VQlKq0Rn5Yd1Hk5YDMQ6YR6gQXlw2De8Q4dffMGc5nA8HDgDVdJc81Owv21fLvWutZQrm4vIYgvKgQ5X1ARELbWme9EGUAA/v9CHEIp2xrm/9tXjOOsRL1BqUCnzMjXwo/fafjBFwCuMpkgB0B/tMrqFYJkesTZ0tGiP/4IovD/jC9eOj+KhIJXcV6FTV1rBg+MMrViIqfSaOvHcBPSyROUAQPvIxopfvMHIhj5tVhgIEEjLPNYsQMVQr6I5ZmYOw8bVBGBe3yGzJIx2hEKivhs/TFm+My2t4uX5VHZ7MxE7/BvpYKicOC84+O4b0gfZxi7P3bvPg1hjh+2iSDYgwQqppjbZPcCLBXpO3G0itFLxoeuEs4944knDy3Yvfg3MYg9k5mWeVWL0Zhzozr35WLDD5mzqAMfzY4eiOWZmDsG9Eu+0lzDZ/4NDnL9GZKw3RIrvM7MRNyiUfnDcQxq2JOgIDKYQsW6DVbjNG9gmpeFQjOCdBbUzgpxAZZh+3x6UaARAa9/8l4q63DUWfQfCdb5PlQNu629oUfxx7nIGW1RVuzLLDb2su5rMY2PvQjicWn+ffUy9UCuud6bzbOjC3gsr3FdgD+wE0Q5AK6I21OfuWwodeWJzCbaR2uQ034NmqTSVoNMz+1LGSEeDFWOG8QQSJF2UPl4TVsLvcHpJAGgTAAU45oix5h7yjD2i/+/7HdK/ccGxuLP1WNs7+jPLT8aCQUTeK+SiDILkT82ZaAMq4jOHnV/1IE0VWjBDvk/pEaJ92gKHi2+BszQF5JVVVxrPzQpX8BEqnXmhrRpo+MSvJtWvFzQy6EdyXtBnJYfjiXhfoLcqqVF8FKVWHtROWNLoxKOqAjr+FENRl+qXuBZ1i5mH+MH9ROvim7Ws0VKbVpTPP5COJloPGKMGSt2XT7WvtCPU+L9irtPMrLJ1oIuT6HGVjwKh/ZAkdC5Ejh4l7OZIkWeCSLbdk8AOwIyJOpDYCVXN89NNC5sQDIy3RVbY3V0T5RMDuqvRPmIl89+I6yoLoHGL3vHOyZODSiNA+LxkPtL+qjCFNycMLmVsuSwbO5wfY9F9Sbs1xkYzKspmy+IONPGKYexzErBKiQwUHOsX8ug8y5dTfgsL5p61PvgDA/4o7jLalxbk4GuuPNkijtB/y6p+1Davok7Os8Mv6PlYFvaKqfz6RKeWiyPxdjGWtH0kZlLVn3KIncVDH4DDMZ15zSwAqImGc5WbtpF4jxHre7GxcHlL+5uFdbNknZZjxgsTqmIBqGvCgTABmqpHX3AUcmHQfpS+LNIEOqUANUemlfpOKk5h2YTkul9kXJlnckBDJWXcOMLJYq7tq+creQOEPNenn+EcmM8enz6ek0ieua2TzOU4e3quYs0FD/Y9lsejEYVF4BqVqC5M7gIKhWkoGert309UditnsGTuLKaAPPIBPHJjmYAD9n7LLvCrAAFkg78VlqkHQjNOtgIt5hQXSPlfqWOJZf26YZfnuSlI6ig71cKwnyAuXIBBA+4BM7zIJLZB1d/HqaNtvWTBkbaSaNEzXAfltTrBfkINhjgy9MkjiuiDIamxbhzvAbZpNtutDmEu+tlS1bMVxroABNL46LVoJpplBMcedhTSmGeXgZ693R2qHJqrPw8xRG4FSlnVEvJuqycHBzeevfy7rZm07Gow6P8KAhNFvo8+oKR4ASyOOSJlgkD3eLCXOj3DZc/sB+zqec4Dx0J22FoiaG2emSx7EeG+Wbpex2en5Fw01ojwTtnsHE/CcuEYm3cKDIZBZ5tCmJ8tTmVJ2dTR3/xzwMnPtyuAHvrAG6d1MuBYhSVzAHs30Eoy9OityNFmfsRS3xphhcb1odPjO6ViKnXeB93T9JjtnnfHYin62I0bATr57xc4z82C5zEurYzkqhJ8FWVA7k2lQSf/65G8AacdqlZ5ETZ3NX/ki98gdfViyEGmPMjy7pMXo7TmWDaixIS6KZINwvNotCNBLvVbIoa2rZewyykc8isAmjj7nk1nRO3YyGDalh/3DH/+tv/+tCf/7YJcYpymvHMvxUumKpJD5AiUUDrVAAAGrgSICqpBl8UFXv/EbYdME8yBzFLnbs5pxSzG5jP7Vdc82F90XwLmRWA1a1wkLgsgbP3cWnwGAASugEtiNmPdvXf+2xbdxaJcklVJ35jUEG3PY7IAhfMpqdPNzACaAAg/gsBEEi8bFTxaB7wun9cF8d/Zbi1ecLg3Jp7JGNDu/2IH5SUHcgOEC3fNFQ4d3BNGD4BbIhvW9SY27ZZ4ZiT2n8Fi7keuia2B2IktOfTcpq8xHLNUkJSZg96ZofeGdLICqh9dJpBVVk2t30bdwKZbHqQB8XS6qPY7ZMnFmtywS9nSRrHM6lABc8Jrstuf7B9HB8xS3otS8zCNaA0nzIryNZRA1i5qaXQ3sjFuoKmD6lF+PrVApSlM6lh6BB3YqxKUckEDCytgyqrLquMSjZZ6/d3i/P86niZRceMbg9JZ2Z8RjHGNHxHYYj1SJzx2GQwfzXem9HeFa0uY2dONxp0EP0J+Oo392xsHm9CNvOCAotQkc9OKYV/T1H/I2MhrSC2bbZzgt3E9pbak3+7a1pjxM/eRYoIkpB9o+SA3LtVyJUx5x5H5jo9CayAMLStDuM5uwjnsY0yjpPfKoXnqZFvCixWmaJfhAp04AdDNigX0ZUmQJzdGPmL0dMZV2wl5XT46xJ7DyiMg+2zX8EHtCcI9ztKRw9D0g8t/q42+cClaRZfyWgKzISdIl3KRcnoymUkF8miyD5EutJzRZh8O0c20qOeAEZR0NN8V4VGjv1fWSnkzwkG/V9lUlFK2539jMk2OZG1w8SobHEqTgid3UnCDP3IwpdxdC9brpto/2U3IAdPVTCCtSUieasG5peBKSsLhlK346cSjwb3tNW3nqRQd6S2xne3LnUilGqfCtbnJi4Y28RVmEiOe2L3J8ltjtVvmtqNOY91uSN1wtBxWcueqOTXAXEzxvuKkXj1dtWJxBFdPS8opI6ShKbSwEvYi2+el4XNZuZf2VbLgr1KQF1CaA4A+nxWQk5SEvvkxWVtgV+A7FOLBPPokqJbJEC4vDNvIj3zB9mJf9cQwcbG9gUbwud38XeY6ohoiFfdoRb+OQ+e1nlKxvj/t+IAn4cWqE9Qz89IXjsDFNPFYM4/heAqFaV4MG6XKRam+4n5djhcDnB43deICqA/6ShhiS+K1mVxJLr8ZzRBGyyKft2xZ0UueLX4cePeQl4lt5/E9jRS316qTUZAUjs+QdicvbQcop1y07vg8C1dZMsWvnnY6DKP1FA/g9X1RsP71BNHC254PXBh3XW6ZnubMuGQJvArzf8uXBzamcdyMjJkFtdCXJNq3hLD5NI2CsXhkeIJAKuyxQsNXbFMFMaMW4Y7KoXoEph+GtNLvQPHA+SKipxRdG5th0/Bdhd+6FWpRzzcdvagWaLAgZWQYMvCAay9Z4WKoQyHcPbmtl2yzxBHa5alTYbt7ky/Uc3C80AC9slN2higRiDRz8FLFPcVmM+2d8Gtg+NuLF5IXWekXgpmjXNleov3PIcByLk0T+aHmRXLkSvE7fvRftXrj5ctt4BXUafNe5rkP5Yltc9mEwXbIGFXFfJx25AaNCuiuWH1DrwOohbnSrJwcl9OlbbAefKH9VTC0qWNQbMaiS4XzfPzbYduOQuKJyG8+m99xgStywdBjkOqLJp93oBvsb6Afof2buVLb+4yMmE3MGytHgCtq+HPIA42nNNClxha+b3IXVsmpegbNBMbdQK9no2XIz0kCmohwOgMqh5PBeCYogydtElf8Pztv8UJdNA47l1lIdE4FeRvdgM+ZwvFpVNsae3aIXxMTNwbCj9p374KL7QndJVyNDWuOMshordF0DuNGlj39N3J3aBHy9i1EjEnBmZZXn854O7Mj9yq3d7EOIohsjs7ky7MGXkM8qmgDq4Fa7waaFxkYr/rxRJ1BcB85RMLytLuuP1krFsd+KdmsdkpDO4Zzz7ycOQsMMUkIzWzNQALzWHq84lGlgCcc6Lq+PRPhUv55BoW1aA7AErtcwPFAYzKRc2oHWnKfkelB9g4vNHpe+McL9YY0RvfIwr5LOoS9kSiM1CGu++MGu2GV1+JBDY3I0+XxXX6GyegzbdVUYd51hl8TXRW7oRTcLE26hF39g/SsM9oWTDFQgE6FeK5QAXp/HQTUMLDICHWDxZFhnUbtvlYVdk6YWBcH6ok5SGpIWPqGJ6Ab5GT90VI+EIAFoFCZtBPApOEh3OD47q2Civ3JOdeIXuxBEvgbaTw0X4NUax712zqP1jnqky0dJIj022AhbZBQfUUnNsDmHM2B+kyoLrECQLmqy8PMMmCbVnnZvvtZG6lofYiA+oFnfA8H6s5Cx8fMp7UmOz95RCWgkGKfDc54dOdHAS5Y7T2617z4M/Q705Oa/KOjoU0JvHmO0U3/+FlNEY1HRndM7nKtkANdmVuTtoD57n0HhBlTZRk73/7p4fHAGE3UI+QDS7R5qL+VEifdOtQJOM1J2kO6WDO1xiszuCg9j4Ez42N/AXUkvMu9q+HYQ9wtZikJPmQN8npGifBx6qoVzqbn1x5cWueV9gGRhNHROQ8+aZXZwQHqjTZ4NmtluawEBsaawBtGcUD45ZlnmD1BSm3dVFVsqftZCUW0SWTOs4x+E3IpRXW26/gHhUvMBxczPCldbaGELyjLBr4h/b0axXG+OHiwdP4cQrtp0rZSdLcZ4ARpOI6UMj8TBwyi3TDz9ku8lsuFtUxGMY2Jzl1CEEAzHe9V7bdDbXzubKxg+UVSXp3Ux17Yrd2BwAi2iUH55aVP0CgErvP7LrUR4R0+/nCc7BGXkuvDyGLDEkXqkiTlFJtMxPn53buLVphKyAIvtRNtNisqHwltQkjuEjZAtDFZ8yqwtRfkMw/nEWYP1giG9Ry7xBFz2F/RFqzO4yqZ8fULR6RmkhR5B4QqEXLK0fI87jIzXUXe01KPvWc5oFlFSJcJ4mdtxo9EqSZ4qmcdA+q6GcmOtqcY4VwgcSQyY90g34ddakf+seCGy0OfQtINxDgYARTFYwSTF5A1BEiTybQJhX/5w9+TwYsf4moNgvWot+BZcKeyLzwXA+B6mhw29wSjEFJg0YGsHqWGGMFdlHg7/64MfgNeGC3kSsIgptuOY5iLB+sE6PNhQuxB3K1gV3cF/CTsKcF+DNneJKtQv7ZTg7ChjD2/5L+pJvOG3zTZUaE84qKwAox8DW7bfzPaxlzsQ2CxKEzcXo//R/yGjIUJVQpdH2SxmLTZoIIm+8MrO1yXock8sU2X9K3SMTG6C8z2/bO9nAraEw3VxUHHB2umiOQc/I/fWZWKm/Gxw1if4LUxDHaKJfDcjQTiDlek/BQEC/6m2mreBOThpGogIUvkDlyvZD+axW4PTRnjGLB3Ri2ZKNThZN43Mzy6zBEofhWLAiZzqlnWC2Wm2GQUTOokEifMt5i4cepB4wPdREOtPZ01XV2y2CbspVzzobVBb/sQr3SohyCZmgdaJgeMQrMEXitD3ChRu4mf7y6AAAB0+FxAyEmpZG7trwiu9eLgwfPwkpG4OHw1c3SXYVFD+mmksTwk1EQywA5dYIv1cBOWqbKpCsfHv0Dky7oHAaWEkde3gmUUfMJ0wv3L9y+voewB9ztgz1Q44hpXpM3xPMG9O7m+4xz6AHasQTqYS7iJMNiFG+rTuhcftH5VEaP+sshmvLP+kXjz+YLf8X8wFAAAAAAAABFWElGugAAAEV4aWYAAElJKgAIAAAABgASAQMAAQAAAAEAAAAaAQUAAQAAAFYAAAAbAQUAAQAAAF4AAAAoAQMAAQAAAAIAAAATAgMAAQAAAAEAAABphwQAAQAAAGYAAAAAAAAASAAAAAEAAABIAAAAAQAAAAYAAJAHAAQAAAAwMjEwAZEHAAQAAAABAgMAAKAHAAQAAAAwMTAwAaADAAEAAAD//wAAAqAEAAEAAAAAAQAAA6AEAAEAAAAAAQAAAAAAAA==;" vertex="1" parent="_P4RdeWbrzQk5U_TMxoU-49">
          <mxGeometry width="119" height="119" as="geometry" />
        </mxCell>
        <mxCell id="_P4RdeWbrzQk5U_TMxoU-48" value="Mongodb-atlas" style="text;html=1;align=center;verticalAlign=middle;whiteSpace=wrap;rounded=0;" vertex="1" parent="_P4RdeWbrzQk5U_TMxoU-49">
          <mxGeometry x="4.499999999999886" y="110" width="120" height="30" as="geometry" />
        </mxCell>
        <mxCell id="_P4RdeWbrzQk5U_TMxoU-51" style="edgeStyle=orthogonalEdgeStyle;rounded=0;orthogonalLoop=1;jettySize=auto;html=1;entryX=0;entryY=0.176;entryDx=0;entryDy=0;entryPerimeter=0;" edge="1" parent="1" source="_P4RdeWbrzQk5U_TMxoU-13" target="_P4RdeWbrzQk5U_TMxoU-47">
          <mxGeometry relative="1" as="geometry" />
        </mxCell>
        <mxCell id="_P4RdeWbrzQk5U_TMxoU-52" style="edgeStyle=orthogonalEdgeStyle;rounded=0;orthogonalLoop=1;jettySize=auto;html=1;" edge="1" parent="1" source="_P4RdeWbrzQk5U_TMxoU-14" target="_P4RdeWbrzQk5U_TMxoU-47">
          <mxGeometry relative="1" as="geometry" />
        </mxCell>
        <mxCell id="_P4RdeWbrzQk5U_TMxoU-53" value="" style="aspect=fixed;sketch=0;html=1;dashed=0;whitespace=wrap;fillColor=#2875E2;strokeColor=#ffffff;points=[[0.005,0.63,0],[0.1,0.2,0],[0.9,0.2,0],[0.5,0,0],[0.995,0.63,0],[0.72,0.99,0],[0.5,1,0],[0.28,0.99,0]];shape=mxgraph.kubernetes.icon2;prIcon=secret" vertex="1" parent="1">
          <mxGeometry x="510.00000000000006" y="420" width="50" height="48" as="geometry" />
        </mxCell>
        <mxCell id="_P4RdeWbrzQk5U_TMxoU-54" style="edgeStyle=orthogonalEdgeStyle;rounded=0;orthogonalLoop=1;jettySize=auto;html=1;entryX=0.995;entryY=0.63;entryDx=0;entryDy=0;entryPerimeter=0;" edge="1" parent="1" source="_P4RdeWbrzQk5U_TMxoU-12" target="_P4RdeWbrzQk5U_TMxoU-53">
          <mxGeometry relative="1" as="geometry" />
        </mxCell>
        <mxCell id="_P4RdeWbrzQk5U_TMxoU-55" value="backend-secret" style="text;html=1;align=center;verticalAlign=middle;whiteSpace=wrap;rounded=0;" vertex="1" parent="1">
          <mxGeometry x="470" y="468" width="130" height="30" as="geometry" />
        </mxCell>
      </root>
    </mxGraphModel>
  </diagram>
</mxfile>
